<?xml version="1.0" encoding="utf-8"?>
<!-- Generator: Adobe Illustrator 24.1.2, SVG Export Plug-In . SVG Version: 6.00 Build 0)  -->
<svg version="1.1" id="Layer_1" xmlns="http://www.w3.org/2000/svg" xmlns:xlink="http://www.w3.org/1999/xlink" x="0px" y="0px"
	 viewBox="0 0 429 308" style="enable-background:new 0 0 429 308;" xml:space="preserve">
<style type="text/css">
	.st0{fill:#FC0613;}
</style>
<path class="st0" d="M49.7,240.9H137l-15.3-11.3c-6.3-4.7-5.8-11.8,1.1-16.1s17.5-3.9,23.9,0.7l41.1,30.4c5.9,4.4,5.9,11,0,15.4
	l-41.1,30.4c-3.3,2.5-7.9,3.7-12.6,3.7c-4,0-8.1-1-11.5-3c-6.9-4.3-7.5-11.5-1.1-16.1l15.5-11.3H49.8c-9.4,0-17-5.1-17-11.5
	C32.8,246.1,40.4,240.9,49.7,240.9z"/>
<g>
	<path class="st0" d="M218.5,26.5c-2.6-2.6-6.2-4.2-10.2-4.2s-7.5,1.6-10.1,4.2h-0.1c-2.6,2.6-4.2,6.2-4.2,10.1
		c0,4,1.6,7.6,4.2,10.1l0.1,0.1c2.5,2.6,6.1,4.1,10.1,4.1s7.6-1.6,10.2-4.1v-0.1c2.6-2.5,4.2-6.1,4.2-10.1
		C222.7,32.7,221.2,29.1,218.5,26.5L218.5,26.5z M208.4,222.7c4,0,7.6-1.6,10.2-4.2v-0.1c2.6-2.5,4.2-6.1,4.2-10.1
		s-1.6-7.6-4.2-10.2l0,0c-2.6-2.6-6.2-4.2-10.2-4.2s-7.5,1.6-10.1,4.2h-0.1c-2.6,2.6-4.2,6.2-4.2,10.2c0,3.9,1.6,7.5,4.2,10.1
		l0.1,0.1C200.8,221,204.4,222.7,208.4,222.7z M286.4,179.2c3.5-0.9,6.8-3.2,8.7-6.7l0.3-0.5c1.7-3.3,2.1-7,1.1-10.4
		c-0.9-3.6-3.2-6.7-6.7-8.7l-0.2-0.1c-3.3-1.8-7.2-2.2-10.7-1.3c-3.6,0.9-6.8,3.3-8.7,6.7c-2,3.4-2.4,7.3-1.4,10.9
		c1,3.5,3.3,6.7,6.7,8.7l0,0C279,179.8,282.8,180.2,286.4,179.2z M223.1,107.8c-3.8-3.8-9-6.1-14.7-6.1s-10.9,2.4-14.7,6.1
		c-3.7,3.7-6,8.9-6,14.7c0,5.8,2.3,10.9,6,14.7c3.8,3.7,8.9,6.1,14.7,6.1c5.7,0,10.9-2.3,14.7-6.1c3.8-3.8,6.1-9,6.1-14.7
		S226.8,111.6,223.1,107.8z M214.8,83.4c8.3,1.4,15.8,5.4,21.6,11.1l0,0c0.9,0.9,1.8,1.9,2.6,2.9l14.3-8.3c-1.9-5.8-2-11.9-0.5-17.6
		c2-7.6,7-14.5,14.4-18.7l0.2-0.2c7.3-4.1,15.7-5,23.2-3c7.6,2,14.5,7,18.8,14.4l0,0c4.3,7.4,5.1,15.8,3.1,23.4s-7,14.5-14.4,18.8
		l-2,1.2H296c-6.9,3.3-14.4,3.8-21.3,2c-5.7-1.5-10.9-4.7-15-9.2l-14.3,8.3c1.6,4.3,2.5,9,2.5,14c0,4.9-0.9,9.7-2.5,14l14.3,8.2
		c4.1-4.6,9.3-7.7,15-9.2c7.6-2.1,16.1-1.2,23.5,3.1l0.5,0.2l0,0c7.1,4.3,11.9,11,13.9,18.5c2,7.6,1.2,16-3.1,23.4l-0.3,0.5l0,0
		c-4.3,7.1-11,11.9-18.5,14c-7.6,2-16.1,1.2-23.5-3.1V192c-7.4-4.3-12.4-11.1-14.4-18.7c-1.5-5.7-1.5-11.7,0.5-17.6l-14.3-8.3
		c-0.8,1-1.7,2-2.6,2.9l0,0c-5.7,5.7-13.2,9.7-21.6,11.1v16.5c5.9,1.2,11.3,4.2,15.4,8.4l0,0c5.6,5.6,9,13.3,9,21.8
		s-3.5,16.2-9,21.8v0.1c-5.6,5.6-13.3,9-21.9,9c-8.5,0-16.2-3.5-21.8-9l0,0v-0.1c-5.6-5.6-9.1-13.3-9.1-21.8s3.5-16.3,9.1-21.8l0,0
		l0,0c4.2-4.2,9.5-7.1,15.4-8.4v-16.5c-8.3-1.3-15.8-5.3-21.5-11.1h-0.1c-7.1-7.2-11.6-17-11.6-28c0-10.9,4.5-20.8,11.6-27.9h0.1
		c5.7-5.8,13.2-9.8,21.5-11.1V66.8c-5.9-1.3-11.3-4.3-15.4-8.4l0,0l0,0c-5.6-5.6-9.1-13.3-9.1-21.8s3.5-16.2,9.1-21.8l0,0
		c5.6-5.6,13.4-9.1,21.8-9.1c8.5,0,16.2,3.5,21.9,9.1l0,0l0,0c5.6,5.6,9,13.4,9,21.8c0,8.5-3.5,16.2-9,21.8l0,0
		c-4.2,4.1-9.5,7.1-15.4,8.4L214.8,83.4L214.8,83.4z M295.2,72.4l-0.1-0.2c-2-3.3-5.1-5.5-8.6-6.5c-3.6-1-7.5-0.6-10.9,1.4l0,0
		c-3.4,2-5.7,5.1-6.7,8.7c-0.9,3.5-0.5,7.5,1.4,10.9l0.1,0.1c2,3.4,5.1,5.6,8.6,6.5c3.5,1,7.5,0.6,10.9-1.4l0.2-0.1
		c3.3-2,5.6-5.1,6.5-8.6C297.5,79.7,297.1,75.8,295.2,72.4z"/>
</g>
</svg>
