<?xml version="1.0" encoding="utf-8"?>
<!-- Generator: Adobe Illustrator 27.5.0, SVG Export Plug-In . SVG Version: 6.00 Build 0)  -->
<svg version="1.1" id="Layer_1" xmlns="http://www.w3.org/2000/svg" xmlns:xlink="http://www.w3.org/1999/xlink" x="0px" y="0px"
	 viewBox="0 0 552 521" style="enable-background:new 0 0 552 521;" xml:space="preserve">
<style type="text/css">
	.st0{enable-background:new    ;}
</style>
<g class="st0">
	<path d="M62.4,57.7c0,0.3,0,0.6,0,0.8c0,0.2-0.1,0.5-0.1,0.6c-0.1,0.2-0.1,0.3-0.2,0.5c-0.1,0.1-0.2,0.3-0.4,0.5s-0.6,0.5-1.3,0.9
		c-0.6,0.4-1.4,0.8-2.4,1.2c-1,0.4-2,0.7-3.3,1s-2.6,0.4-4,0.4c-2.5,0-4.8-0.4-6.9-1.3c-2-0.8-3.8-2.1-5.2-3.7
		c-1.4-1.6-2.5-3.7-3.3-6.1c-0.8-2.4-1.2-5.2-1.2-8.4c0-3.2,0.4-6.1,1.2-8.6c0.8-2.5,2-4.7,3.5-6.4c1.5-1.8,3.3-3.1,5.4-4
		s4.4-1.4,7-1.4c1.1,0,2.2,0.1,3.3,0.3c1.1,0.2,2,0.5,3,0.8c0.9,0.3,1.7,0.7,2.4,1.1c0.7,0.4,1.2,0.8,1.5,1s0.4,0.5,0.5,0.6
		c0.1,0.1,0.1,0.3,0.2,0.5c0,0.2,0.1,0.4,0.1,0.7c0,0.3,0,0.6,0,0.9c0,0.4,0,0.7-0.1,1c0,0.3-0.1,0.5-0.2,0.7
		c-0.1,0.2-0.2,0.3-0.3,0.4c-0.1,0.1-0.2,0.1-0.4,0.1c-0.3,0-0.7-0.2-1.2-0.6c-0.5-0.4-1.2-0.8-2-1.3c-0.8-0.5-1.8-0.9-2.9-1.3
		c-1.1-0.4-2.5-0.6-4.1-0.6c-1.7,0-3.3,0.3-4.7,1c-1.4,0.7-2.6,1.7-3.6,3.1c-1,1.3-1.8,3-2.3,4.9s-0.8,4.2-0.8,6.6
		c0,2.5,0.3,4.7,0.8,6.5c0.5,1.9,1.3,3.5,2.3,4.8c1,1.3,2.2,2.2,3.7,2.9c1.5,0.7,3.1,1,4.9,1c1.6,0,2.9-0.2,4.1-0.6s2.1-0.8,3-1.3
		s1.5-0.9,2-1.3s0.9-0.6,1.2-0.6c0.1,0,0.3,0,0.4,0.1c0.1,0.1,0.2,0.2,0.2,0.3c0.1,0.2,0.1,0.4,0.1,0.7
		C62.4,56.9,62.4,57.3,62.4,57.7z"/>
	<path d="M90.2,52.3c0,1.8-0.3,3.5-1,4.9s-1.6,2.6-2.8,3.6s-2.6,1.7-4.2,2.2c-1.6,0.5-3.4,0.8-5.2,0.8c-1.3,0-2.5-0.1-3.6-0.3
		c-1.1-0.2-2.1-0.5-3-0.8c-0.9-0.3-1.6-0.7-2.2-1c-0.6-0.3-1-0.6-1.2-0.9c-0.2-0.2-0.4-0.5-0.5-0.9c-0.1-0.4-0.2-0.9-0.2-1.5
		c0-0.4,0-0.8,0.1-1.1c0-0.3,0.1-0.5,0.2-0.7c0.1-0.2,0.2-0.3,0.3-0.4c0.1-0.1,0.3-0.1,0.4-0.1c0.3,0,0.7,0.2,1.2,0.5
		c0.5,0.3,1.2,0.7,2,1.1c0.8,0.4,1.8,0.8,2.9,1.1c1.1,0.4,2.4,0.5,3.9,0.5c1.1,0,2.2-0.2,3.1-0.5c0.9-0.3,1.7-0.7,2.4-1.3
		c0.7-0.6,1.2-1.2,1.6-2c0.4-0.8,0.5-1.7,0.5-2.7c0-1.1-0.3-2-0.8-2.8c-0.5-0.8-1.2-1.5-2-2.1c-0.8-0.6-1.8-1.1-2.8-1.6
		c-1.1-0.5-2.1-1-3.2-1.5c-1.1-0.5-2.2-1.1-3.2-1.7c-1-0.6-2-1.4-2.8-2.2c-0.8-0.8-1.5-1.8-2-3c-0.5-1.1-0.8-2.5-0.8-4.1
		c0-1.6,0.3-3.1,0.9-4.4c0.6-1.3,1.4-2.3,2.5-3.2c1.1-0.9,2.3-1.5,3.8-2c1.5-0.5,3-0.7,4.7-0.7c0.9,0,1.7,0.1,2.6,0.2
		c0.9,0.2,1.7,0.4,2.5,0.6c0.8,0.3,1.5,0.5,2.1,0.8c0.6,0.3,1,0.6,1.2,0.8c0.2,0.2,0.3,0.3,0.4,0.5c0.1,0.1,0.1,0.3,0.2,0.4
		c0,0.2,0.1,0.4,0.1,0.6c0,0.2,0,0.6,0,0.9c0,0.4,0,0.7,0,1c0,0.3-0.1,0.5-0.1,0.7c-0.1,0.2-0.1,0.3-0.3,0.4s-0.2,0.1-0.4,0.1
		c-0.2,0-0.6-0.1-1-0.4s-1-0.6-1.7-0.9c-0.7-0.4-1.5-0.7-2.4-1S80,28,78.8,28c-1.1,0-2,0.1-2.8,0.4c-0.8,0.3-1.5,0.7-2,1.2
		s-0.9,1.1-1.2,1.7c-0.3,0.7-0.4,1.4-0.4,2.1c0,1.1,0.3,2,0.8,2.8c0.5,0.8,1.2,1.5,2,2.1C76,38.9,77,39.5,78,40
		c1.1,0.5,2.1,1,3.3,1.5c1.1,0.5,2.2,1.1,3.3,1.7c1.1,0.6,2,1.3,2.8,2.2s1.5,1.8,2,3C89.9,49.4,90.2,50.8,90.2,52.3z"/>
	<path d="M113.3,62.3c-0.1,0.2-0.2,0.4-0.3,0.5c-0.1,0.1-0.3,0.3-0.6,0.3c-0.3,0.1-0.6,0.1-1,0.2c-0.4,0-0.9,0-1.5,0
		c-0.4,0-0.8,0-1.2,0c-0.3,0-0.6,0-0.9-0.1c-0.2,0-0.4-0.1-0.6-0.1c-0.2,0-0.3-0.1-0.4-0.2c-0.1-0.1-0.2-0.2-0.3-0.3
		c-0.1-0.1-0.1-0.2-0.2-0.4L93.7,26.1c-0.2-0.4-0.2-0.8-0.3-1.1c0-0.3,0.1-0.5,0.3-0.6c0.2-0.1,0.5-0.2,0.9-0.3
		c0.4,0,0.9-0.1,1.6-0.1c0.6,0,1,0,1.3,0c0.3,0,0.6,0.1,0.8,0.2s0.3,0.2,0.4,0.3c0.1,0.1,0.2,0.3,0.3,0.5l11.2,32.8h0L121,25.2
		c0.1-0.2,0.1-0.4,0.2-0.5c0.1-0.1,0.2-0.3,0.4-0.3s0.5-0.1,0.8-0.2c0.4,0,0.8,0,1.4,0c0.6,0,1.1,0,1.5,0.1c0.4,0.1,0.6,0.1,0.7,0.3
		c0.1,0.1,0.2,0.3,0.2,0.6s-0.1,0.6-0.3,1.1L113.3,62.3z"/>
</g>
<path d="M12.8,53.8c2.2,0,4,1.5,4,3.3v11.6c0,10.2,10.5,18.9,23.3,18.9h20.2L55,83.2c-1.6-1.2-1.6-3.3,0-4.6c1.6-1.2,4.1-1.2,5.6,0
	l12.1,9.8c0.8,0.6,1.2,1.5,1.2,2.3c0,0.9-0.4,1.7-1.2,2.3l-12.1,9.8c-0.8,0.6-1.8,1-2.8,1s-2.1-0.3-2.8-1c-1.6-1.2-1.6-3.3,0-4.6
	l5.3-4.3H40C22.8,94,8.8,82.6,8.8,68.7V57C8.8,55.3,10.6,53.8,12.8,53.8z"/>
</svg>
