<?xml version="1.0" encoding="UTF-8"?>
<!DOCTYPE svg PUBLIC "-//W3C//DTD SVG 1.1//EN" "http://www.w3.org/Graphics/SVG/1.1/DTD/svg11.dtd">
<svg xmlns="http://www.w3.org/2000/svg" version="1.1" width="260px" height="200px" style="shape-rendering:geometricPrecision; text-rendering:geometricPrecision; image-rendering:optimizeQuality; fill-rule:evenodd; clip-rule:evenodd" xmlns:xlink="http://www.w3.org/1999/xlink">
<g><path style="opacity:0.822" fill="#FFFFFF" d="M 115.5,37.5 C 138.502,37.3334 161.502,37.5 184.5,38C 187.428,39.918 189.094,42.5847 189.5,46C 189.636,49.0133 189.303,51.8466 188.5,54.5C 196.472,55.4977 204.472,55.831 212.5,55.5C 212.17,61.8682 212.504,68.2015 213.5,74.5C 232.626,82.7114 236.793,95.7114 226,113.5C 222.377,117.561 217.877,119.895 212.5,120.5C 212.5,127.167 212.5,133.833 212.5,140.5C 204.472,140.169 196.472,140.502 188.5,141.5C 190.797,147.15 189.797,152.317 185.5,157C 161.833,157.667 138.167,157.667 114.5,157C 112.951,155.786 111.785,154.286 111,152.5C 110.501,148.514 110.334,144.514 110.5,140.5C 102.833,140.5 95.1667,140.5 87.5,140.5C 87.6658,135.821 87.4992,131.155 87,126.5C 78.6667,118.167 70.3333,109.833 62,101.5C 60,102.833 58,102.833 56,101.5C 51.1571,117.337 40.6571,123.504 24.5,120C 8.95797,112.026 5.12464,100.193 13,84.5C 26,71.1667 39,71.1667 52,84.5C 53.7411,87.3093 54.9078,90.3093 55.5,93.5C 58.1873,93.6641 60.854,93.4974 63.5,93C 71.3063,85.1937 79.1396,77.3604 87,69.5C 87.4992,64.8452 87.6658,60.1785 87.5,55.5C 95.1667,55.5 102.833,55.5 110.5,55.5C 110.334,51.1539 110.501,46.8206 111,42.5C 112.025,40.313 113.525,38.6464 115.5,37.5 Z M 119.5,46.5 C 139.833,46.5 160.167,46.5 180.5,46.5C 180.5,55.8333 180.5,65.1667 180.5,74.5C 160.167,74.5 139.833,74.5 119.5,74.5C 119.5,65.1667 119.5,55.8333 119.5,46.5 Z M 96.5,63.5 C 101.167,63.5 105.833,63.5 110.5,63.5C 110.334,68.1785 110.501,72.8452 111,77.5C 111.785,79.286 112.951,80.786 114.5,82C 126.241,83.1472 138.074,83.6472 150,83.5C 161.167,83.3333 172.333,83.1667 183.5,83C 186.837,81.1745 188.837,78.3412 189.5,74.5C 189.685,71.2758 189.351,67.9425 188.5,64.5C 193.802,63.3372 199.136,63.1705 204.5,64C 203.707,67.4106 203.207,70.9106 203,74.5C 184.286,83.1106 180.286,96.1106 191,113.5C 194.376,117.271 198.542,119.604 203.5,120.5C 203.211,124.106 203.544,127.606 204.5,131C 199.167,131.667 193.833,131.667 188.5,131C 189.623,126.189 189.457,121.356 188,116.5C 186.457,114.622 184.624,113.122 182.5,112C 160.833,111.333 139.167,111.333 117.5,112C 114.417,112.786 112.251,114.619 111,117.5C 110.501,122.155 110.334,126.821 110.5,131.5C 105.833,131.5 101.167,131.5 96.5,131.5C 96.3379,129.473 96.5045,127.473 97,125.5C 106.161,116.339 115.328,107.172 124.5,98C 115.71,88.2084 106.543,78.7084 97,69.5C 96.5045,67.5273 96.3379,65.5273 96.5,63.5 Z M 91.5,76.5 C 98.8559,83.2072 105.856,90.3739 112.5,98C 105.569,105.054 98.7355,112.221 92,119.5C 84.8333,112.333 77.6667,105.167 70.5,98C 77.7026,90.9649 84.7026,83.7982 91.5,76.5 Z M 28.5,83.5 C 45.4313,83.7434 50.598,91.7434 44,107.5C 35.3655,114.509 27.3655,113.842 20,105.5C 15.8601,95.4496 18.6934,88.1163 28.5,83.5 Z M 204.5,83.5 C 220.029,83.6052 225.529,90.9385 221,105.5C 213.927,113.561 206.094,114.394 197.5,108C 194.118,102.123 193.618,95.956 196,89.5C 198.671,87.0976 201.505,85.0976 204.5,83.5 Z M 119.5,121.5 C 139.833,121.5 160.167,121.5 180.5,121.5C 180.5,130.833 180.5,140.167 180.5,149.5C 160.167,149.5 139.833,149.5 119.5,149.5C 119.5,140.167 119.5,130.833 119.5,121.5 Z"/></g>
</svg>
<?xml version="1.0" encoding="UTF-8"?>
<!DOCTYPE svg PUBLIC "-//W3C//DTD SVG 1.1//EN" "http://www.w3.org/Graphics/SVG/1.1/DTD/svg11.dtd">
<svg xmlns="http://www.w3.org/2000/svg" version="1.1" width="260px" height="200px" style="shape-rendering:geometricPrecision; text-rendering:geometricPrecision; image-rendering:optimizeQuality; fill-rule:evenodd; clip-rule:evenodd" xmlns:xlink="http://www.w3.org/1999/xlink">
<g><path style="opacity:0.822" fill="#FFFFFF" d="M 115.5,37.5 C 138.502,37.3334 161.502,37.5 184.5,38C 187.428,39.918 189.094,42.5847 189.5,46C 189.636,49.0133 189.303,51.8466 188.5,54.5C 196.472,55.4977 204.472,55.831 212.5,55.5C 212.17,61.8682 212.504,68.2015 213.5,74.5C 232.626,82.7114 236.793,95.7114 226,113.5C 222.377,117.561 217.877,119.895 212.5,120.5C 212.5,127.167 212.5,133.833 212.5,140.5C 204.472,140.169 196.472,140.502 188.5,141.5C 190.797,147.15 189.797,152.317 185.5,157C 161.833,157.667 138.167,157.667 114.5,157C 112.951,155.786 111.785,154.286 111,152.5C 110.501,148.514 110.334,144.514 110.5,140.5C 102.833,140.5 95.1667,140.5 87.5,140.5C 87.6658,135.821 87.4992,131.155 87,126.5C 78.6667,118.167 70.3333,109.833 62,101.5C 60,102.833 58,102.833 56,101.5C 51.1571,117.337 40.6571,123.504 24.5,120C 8.95797,112.026 5.12464,100.193 13,84.5C 26,71.1667 39,71.1667 52,84.5C 53.7411,87.3093 54.9078,90.3093 55.5,93.5C 58.1873,93.6641 60.854,93.4974 63.5,93C 71.3063,85.1937 79.1396,77.3604 87,69.5C 87.4992,64.8452 87.6658,60.1785 87.5,55.5C 95.1667,55.5 102.833,55.5 110.5,55.5C 110.334,51.1539 110.501,46.8206 111,42.5C 112.025,40.313 113.525,38.6464 115.5,37.5 Z M 119.5,46.5 C 139.833,46.5 160.167,46.5 180.5,46.5C 180.5,55.8333 180.5,65.1667 180.5,74.5C 160.167,74.5 139.833,74.5 119.5,74.5C 119.5,65.1667 119.5,55.8333 119.5,46.5 Z M 96.5,63.5 C 101.167,63.5 105.833,63.5 110.5,63.5C 110.334,68.1785 110.501,72.8452 111,77.5C 111.785,79.286 112.951,80.786 114.5,82C 126.241,83.1472 138.074,83.6472 150,83.5C 161.167,83.3333 172.333,83.1667 183.5,83C 186.837,81.1745 188.837,78.3412 189.5,74.5C 189.685,71.2758 189.351,67.9425 188.5,64.5C 193.802,63.3372 199.136,63.1705 204.5,64C 203.707,67.4106 203.207,70.9106 203,74.5C 184.286,83.1106 180.286,96.1106 191,113.5C 194.376,117.271 198.542,119.604 203.5,120.5C 203.211,124.106 203.544,127.606 204.5,131C 199.167,131.667 193.833,131.667 188.5,131C 189.623,126.189 189.457,121.356 188,116.5C 186.457,114.622 184.624,113.122 182.5,112C 160.833,111.333 139.167,111.333 117.5,112C 114.417,112.786 112.251,114.619 111,117.5C 110.501,122.155 110.334,126.821 110.5,131.5C 105.833,131.5 101.167,131.5 96.5,131.5C 96.3379,129.473 96.5045,127.473 97,125.5C 106.161,116.339 115.328,107.172 124.5,98C 115.71,88.2084 106.543,78.7084 97,69.5C 96.5045,67.5273 96.3379,65.5273 96.5,63.5 Z M 91.5,76.5 C 98.8559,83.2072 105.856,90.3739 112.5,98C 105.569,105.054 98.7355,112.221 92,119.5C 84.8333,112.333 77.6667,105.167 70.5,98C 77.7026,90.9649 84.7026,83.7982 91.5,76.5 Z M 28.5,83.5 C 45.4313,83.7434 50.598,91.7434 44,107.5C 35.3655,114.509 27.3655,113.842 20,105.5C 15.8601,95.4496 18.6934,88.1163 28.5,83.5 Z M 204.5,83.5 C 220.029,83.6052 225.529,90.9385 221,105.5C 213.927,113.561 206.094,114.394 197.5,108C 194.118,102.123 193.618,95.956 196,89.5C 198.671,87.0976 201.505,85.0976 204.5,83.5 Z M 119.5,121.5 C 139.833,121.5 160.167,121.5 180.5,121.5C 180.5,130.833 180.5,140.167 180.5,149.5C 160.167,149.5 139.833,149.5 119.5,149.5C 119.5,140.167 119.5,130.833 119.5,121.5 Z"/></g>
</svg>
