<?xml version="1.0" encoding="utf-8"?>
<!-- Generator: Adobe Illustrator 24.1.2, SVG Export Plug-In . SVG Version: 6.00 Build 0)  -->
<svg version="1.1" id="Layer_1" xmlns="http://www.w3.org/2000/svg" xmlns:xlink="http://www.w3.org/1999/xlink" x="0px" y="0px"
	 viewBox="0 0 549 521" style="enable-background:new 0 0 549 521;" xml:space="preserve">
<style type="text/css">
	.st0{font-family:'Calibri';}
	.st1{font-size:197.3725px;}
</style>
<text transform="matrix(1 0 0 1 99.9995 328.9126)" class="st0 st1">CSV</text>
<path d="M60.9,271.2c7.6,0,13.7,5,13.7,11.2v39.9c0,35.1,36.1,65,80.2,65h69.5l-18.2-14.7c-5.5-4.3-5.5-11.4,0-15.7
	c5.5-4.3,14.1-4.3,19.4,0l41.7,33.7c2.6,2.2,4,5,4,7.9c0,3-1.5,5.8-4,7.9l-41.7,33.7c-2.6,2.2-6.1,3.3-9.8,3.3s-7.1-1.2-9.8-3.3
	c-5.5-4.3-5.5-11.4,0-15.7l18.2-14.7h-69.5C95.3,409.8,47,370.6,47,322.4v-40C47.2,276.3,53.3,271.2,60.9,271.2z"/>
</svg>
